<svg version="1.1" viewBox="0.0 0.0 1312.4383202099737 227.750656167979" fill="none" stroke="none" stroke-linecap="square" stroke-miterlimit="10" xmlns:xlink="http://www.w3.org/1999/xlink" xmlns="http://www.w3.org/2000/svg"><clipPath id="p.0"><path d="m0 0l1312.4384 0l0 227.75066l-1312.4384 0l0 -227.75066z" clip-rule="nonzero"/></clipPath><g clip-path="url(#p.0)"><path fill="#000000" fill-opacity="0.0" d="m0 0l1312.4384 0l0 227.75066l-1312.4384 0z" fill-rule="evenodd"/><path fill="#000000" fill-opacity="0.0" d="m0 0l1310.9921 0l0 226.23622l-1310.9921 0z" fill-rule="evenodd"/><path fill="#000000" d="m109.734375 132.35625l17.6875 4.46875q-5.5625 21.78125 -20.015625 33.21875q-14.4375 11.4375 -35.3125 11.4375q-21.609375 0 -35.140625 -8.796875q-13.53125 -8.796875 -20.59375 -25.46875q-7.0625 -16.6875 -7.0625 -35.828125q0 -20.875 7.96875 -36.40625q7.984375 -15.546875 22.703125 -23.609375q14.71875 -8.0625 32.390625 -8.0625q20.0625 0 33.734375 10.21875q13.671875 10.203125 19.046875 28.703125l-17.40625 4.09375q-4.65625 -14.578125 -13.5 -21.234375q-8.828125 -6.65625 -22.234375 -6.65625q-15.40625 0 -25.75 7.390625q-10.34375 7.375 -14.53125 19.828125q-4.1875 12.4375 -4.1875 25.640625q0 17.046875 4.953125 29.765625q4.96875 12.71875 15.453125 19.015625q10.484375 6.28125 22.703125 6.28125q14.84375 0 25.140625 -8.5625q10.3125 -8.578125 13.953125 -25.4375zm194.8588 46.84375l0 -133.60938l18.140625 0l70.171875 104.90625l0 -104.90625l16.953125 0l0 133.60938l-18.140625 0l-70.171875 -105.0l0 105.0l-16.953125 0zm168.96902 0l0 -117.84375l-44.015625 0l0 -15.765625l105.90625 0l0 15.765625l-44.203125 0l0 117.84375l-17.6875 0zm80.29834 0l0 -133.60938l59.25 0q17.859375 0 27.15625 3.609375q9.296875 3.59375 14.84375 12.703125q5.5625 9.109375 5.5625 20.140625q0 14.21875 -9.203125 23.96875q-9.203125 9.75 -28.4375 12.390625q7.03125 3.375 10.671875 6.65625q7.75 7.109375 14.671875 17.78125l23.234375 36.359375l-22.234375 0l-17.671875 -27.796875q-7.75 -12.03125 -12.765625 -18.40625q-5.015625 -6.390625 -8.984375 -8.9375q-3.953125 -2.546875 -8.0625 -3.546875q-3.0 -0.640625 -9.84375 -0.640625l-20.5 0l0 59.328125l-17.6875 0zm17.6875 -74.640625l38.0 0q12.125 0 18.953125 -2.5q6.84375 -2.515625 10.390625 -8.03125q3.5625 -5.515625 3.5625 -11.984375q0 -9.484375 -6.890625 -15.578125q-6.875 -6.109375 -21.734375 -6.109375l-42.28125 0l0 44.203125zm102.17218 74.640625l51.296875 -133.60938l19.0625 0l54.671875 133.60938l-20.140625 0l-15.578125 -40.46875l-55.875 0l-14.671875 40.46875l-18.765625 0zm38.546875 -54.859375l45.296875 0l-13.953125 -37.015625q-6.375 -16.859375 -9.46875 -27.703125q-2.5625 12.859375 -7.203125 25.515625l-14.671875 39.203125zm142.72974 54.859375l0 -133.60938l17.671875 0l0 54.859375l69.453125 0l0 -54.859375l17.6875 0l0 133.60938l-17.6875 0l0 -62.984375l-69.453125 0l0 62.984375l-17.671875 0zm276.2339 0l51.6875 -69.625l-45.578125 -63.984375l21.0625 0l24.234375 34.265625q7.5625 10.65625 10.765625 16.40625q4.453125 -7.296875 10.5625 -15.21875l26.890625 -35.453125l19.234375 0l-46.9375 62.96875l50.578125 70.640625l-21.875 0l-33.625 -47.671875q-2.828125 -4.09375 -5.84375 -8.921875q-4.453125 7.28125 -6.375 10.015625l-33.53125 46.578125l-21.25 0z" fill-rule="nonzero"/><path fill="#000000" fill-opacity="0.0" d="m150.57047 76.60103l64.56558 -37.29996l64.56961 37.27714l-0.0013427734 74.574l-64.56555 37.299973l-64.569626 -37.277145z" fill-rule="evenodd"/><path stroke="#000000" stroke-width="8.0" stroke-linejoin="round" stroke-linecap="butt" d="m150.57047 76.60103l64.56558 -37.29996l64.56961 37.27714l-0.0013427734 74.574l-64.56555 37.299973l-64.569626 -37.277145z" fill-rule="evenodd"/><path fill="#000000" fill-opacity="0.0" d="m279.70566 76.57821l0 74.58268" fill-rule="evenodd"/><path stroke="#00ffff" stroke-width="8.0" stroke-linejoin="round" stroke-linecap="butt" d="m279.70566 76.57821l0 74.58268" fill-rule="evenodd"/><path fill="#000000" fill-opacity="0.0" d="m215.13605 39.301067l64.566925 37.29134" fill-rule="evenodd"/><path stroke="#00ffff" stroke-width="8.0" stroke-linejoin="round" stroke-linecap="butt" d="m215.13605 39.301067l64.566925 37.29134" fill-rule="evenodd"/><path fill="#00ffff" d="m277.75345 76.082375l0 0c0 -1.6177139 1.33255 -2.9291306 2.9763794 -2.9291306l0 0c0.7893677 0 1.5464172 0.30860138 2.1046143 0.8579254c0.5581665 0.5493164 0.87176514 1.2943573 0.87176514 2.0712051l0 0c0 1.6177216 -1.3325806 2.9291382 -2.9763794 2.9291382l0 0c-1.6438293 0 -2.9763794 -1.3114166 -2.9763794 -2.9291382z" fill-rule="evenodd"/><path fill="#000000" d="m281.59357 148.6803l0 1.8740234l0 0c0 1.0349884 -0.860199 1.8740082 -1.9212646 1.8740082c-1.0610962 0 -1.9212646 -0.8390198 -1.9212646 -1.8740082l0 -1.8740234z" fill-rule="evenodd"/><path stroke="#000000" stroke-width="4.0" stroke-linejoin="round" stroke-linecap="butt" d="m281.59357 148.6803l0 1.8740234l0 0c0 1.0349884 -0.860199 1.8740082 -1.9212646 1.8740082c-1.0610962 0 -1.9212646 -0.8390198 -1.9212646 -1.8740082l0 -1.8740234z" fill-rule="evenodd"/><path fill="#000000" d="m216.44205 42.36834l-1.6850281 -0.9763756l0 0c-0.93063354 -0.539238 -1.24086 -1.7519493 -0.69291687 -2.708664c0.54792786 -0.9567108 1.7465363 -1.2951431 2.6771698 -0.75590515l1.6850281 0.9763794z" fill-rule="evenodd"/><path stroke="#000000" stroke-width="4.0" stroke-linejoin="round" stroke-linecap="butt" d="m216.44205 42.36834l-1.6850281 -0.9763756l0 0c-0.93063354 -0.539238 -1.24086 -1.7519493 -0.69291687 -2.708664c0.54792786 -0.9567108 1.7465363 -1.2951431 2.6771698 -0.75590515l1.6850281 0.9763794z" fill-rule="evenodd"/><path fill="#000000" fill-opacity="0.0" d="m150.03035 151.14095l65.102356 -38.4252" fill-rule="evenodd"/><path stroke="#000000" stroke-width="8.0" stroke-linejoin="round" stroke-linecap="butt" d="m150.03035 151.14095l65.102356 -38.4252" fill-rule="evenodd"/><path fill="#000000" fill-opacity="0.0" d="m215.10643 113.06118l64.62993 -36.472443" fill-rule="evenodd"/><path stroke="#00ffff" stroke-width="8.0" stroke-linejoin="round" stroke-linecap="butt" d="m215.10643 113.06118l64.62993 -36.472443" fill-rule="evenodd"/><path fill="#000000" fill-opacity="0.0" d="m994.5705 75.8425l64.56549 -37.29996l64.5697 37.27714l-0.0013427734 74.574l-64.56555 37.299957l-64.56964 -37.27713z" fill-rule="evenodd"/><path stroke="#000000" stroke-width="8.0" stroke-linejoin="round" stroke-linecap="butt" d="m994.5705 75.8425l64.56549 -37.29996l64.5697 37.27714l-0.0013427734 74.574l-64.56555 37.299957l-64.56964 -37.27713z" fill-rule="evenodd"/><path fill="#000000" fill-opacity="0.0" d="m1123.7057 75.81968l0 74.58268" fill-rule="evenodd"/><path stroke="#00ffff" stroke-width="8.0" stroke-linejoin="round" stroke-linecap="butt" d="m1123.7057 75.81968l0 74.58268" fill-rule="evenodd"/><path fill="#000000" fill-opacity="0.0" d="m1059.136 38.542538l64.56702 37.29134" fill-rule="evenodd"/><path stroke="#00ffff" stroke-width="8.0" stroke-linejoin="round" stroke-linecap="butt" d="m1059.136 38.542538l64.56702 37.29134" fill-rule="evenodd"/><path fill="#00ffff" d="m1121.7534 75.323845l0 0c0 -1.6177139 1.3326416 -2.9291306 2.9764404 -2.9291306l0 0c0.78930664 0 1.5463867 0.30860138 2.1046143 0.8579254c0.55810547 0.5493164 0.8717041 1.2943497 0.8717041 2.0712051l0 0c0 1.6177216 -1.3325195 2.9291382 -2.9763184 2.9291382l0 0c-1.6437988 0 -2.9764404 -1.3114166 -2.9764404 -2.9291382z" fill-rule="evenodd"/><path fill="#000000" d="m1125.5935 147.92177l0 1.8740234l0 0c0 1.0349884 -0.8601074 1.8740082 -1.9212646 1.8740082c-1.0610352 0 -1.9212646 -0.8390198 -1.9212646 -1.8740082l0 -1.8740234z" fill-rule="evenodd"/><path stroke="#000000" stroke-width="4.0" stroke-linejoin="round" stroke-linecap="butt" d="m1125.5935 147.92177l0 1.8740234l0 0c0 1.0349884 -0.8601074 1.8740082 -1.9212646 1.8740082c-1.0610352 0 -1.9212646 -0.8390198 -1.9212646 -1.8740082l0 -1.8740234z" fill-rule="evenodd"/><path fill="#000000" d="m1060.442 41.60981l-1.6850586 -0.9763756l0 0c-0.930542 -0.5392418 -1.2408447 -1.7519493 -0.6928711 -2.708664c0.54797363 -0.9567108 1.746582 -1.2951431 2.677124 -0.75590515l1.6850586 0.9763794z" fill-rule="evenodd"/><path stroke="#000000" stroke-width="4.0" stroke-linejoin="round" stroke-linecap="butt" d="m1060.442 41.60981l-1.6850586 -0.9763756l0 0c-0.930542 -0.5392418 -1.2408447 -1.7519493 -0.6928711 -2.708664c0.54797363 -0.9567108 1.746582 -1.2951431 2.677124 -0.75590515l1.6850586 0.9763794z" fill-rule="evenodd"/><path fill="#000000" fill-opacity="0.0" d="m994.03033 150.38242l65.102356 -38.4252" fill-rule="evenodd"/><path stroke="#000000" stroke-width="8.0" stroke-linejoin="round" stroke-linecap="butt" d="m994.03033 150.38242l65.102356 -38.4252" fill-rule="evenodd"/><path fill="#000000" fill-opacity="0.0" d="m1059.1064 112.30265l64.62988 -36.472443" fill-rule="evenodd"/><path stroke="#00ffff" stroke-width="8.0" stroke-linejoin="round" stroke-linecap="butt" d="m1059.1064 112.30265l64.62988 -36.472443" fill-rule="evenodd"/></g></svg>