<svg version="1.1" viewBox="0.0 0.0 206.95538057742783 200.36745406824147" fill="none" stroke="none" stroke-linecap="square" stroke-miterlimit="10" xmlns:xlink="http://www.w3.org/1999/xlink" xmlns="http://www.w3.org/2000/svg"><clipPath id="p.0"><path d="m0 0l206.95538 0l0 200.36745l-206.95538 0l0 -200.36745z" clip-rule="nonzero"/></clipPath><g clip-path="url(#p.0)"><path fill="#000000" fill-opacity="0.0" d="m0 0l206.95538 0l0 200.36745l-206.95538 0z" fill-rule="evenodd"/><path fill="#000000" fill-opacity="0.0" d="m34.425873 59.63747l68.84466 -39.76706l68.86184 39.75464l-0.005706787 79.50848l-68.84466 39.76706l-68.86184 -39.75464z" fill-rule="evenodd"/><path stroke="#000000" stroke-width="8.0" stroke-linejoin="round" stroke-linecap="butt" d="m34.425873 59.63747l68.84466 -39.76706l68.86184 39.75464l-0.005706787 79.50848l-68.84466 39.76706l-68.86184 -39.75464z" fill-rule="evenodd"/><path fill="#000000" fill-opacity="0.0" d="m172.13237 59.625053l0 79.496056" fill-rule="evenodd"/><path stroke="#00ffff" stroke-width="8.0" stroke-linejoin="round" stroke-linecap="butt" d="m172.13237 59.625053l0 79.496056" fill-rule="evenodd"/><path fill="#000000" fill-opacity="0.0" d="m103.27053 19.870413l68.850395 39.74803" fill-rule="evenodd"/><path stroke="#00ffff" stroke-width="8.0" stroke-linejoin="round" stroke-linecap="butt" d="m103.27053 19.870413l68.850395 39.74803" fill-rule="evenodd"/><path fill="#00ffff" d="m169.72441 59.081394l0 0c0 -1.722084 1.4171753 -3.1181107 3.1653595 -3.1181107l0 0c0.8394928 0 1.6446228 0.3285141 2.2382355 0.91327286c0.5936279 0.58475876 0.92710876 1.3778648 0.92710876 2.2048378l0 0c0 1.722084 -1.4171753 3.1181107 -3.1653442 3.1181107l0 0c-1.7481842 0 -3.1653595 -1.3960266 -3.1653595 -3.1181107z" fill-rule="evenodd"/><path fill="#000000" d="m174.13124 136.49606l0 2.0l0 0c0 1.1045685 -0.91659546 2.0 -2.0472565 2.0c-1.130661 0 -2.0472412 -0.8954315 -2.0472412 -2.0l0 -2.0z" fill-rule="evenodd"/><path stroke="#000000" stroke-width="4.0" stroke-linejoin="round" stroke-linecap="butt" d="m174.13124 136.49606l0 2.0l0 0c0 1.1045685 -0.91659546 2.0 -2.0472565 2.0c-1.130661 0 -2.0472412 -0.8954315 -2.0472412 -2.0l0 -2.0z" fill-rule="evenodd"/><path fill="#000000" d="m104.66408 23.141739l-1.7952805 -1.0393696l0 0c-0.99150085 -0.574028 -1.3228836 -1.864294 -0.7401581 -2.8818893c0.5827255 -1.0175953 1.8588943 -1.3771782 2.8503952 -0.8031502l1.7952728 1.0393696z" fill-rule="evenodd"/><path stroke="#000000" stroke-width="4.0" stroke-linejoin="round" stroke-linecap="butt" d="m104.66408 23.141739l-1.7952805 -1.0393696l0 0c-0.99150085 -0.574028 -1.3228836 -1.864294 -0.7401581 -2.8818893c0.5827255 -1.0175953 1.8588943 -1.3771782 2.8503952 -0.8031502l1.7952728 1.0393696z" fill-rule="evenodd"/></g></svg>